<?xml version="1.0" encoding="UTF-8"?>
<!DOCTYPE svg PUBLIC "-//W3C//DTD SVG 1.1//EN" "http://www.w3.org/Graphics/SVG/1.1/DTD/svg11.dtd">
<svg xmlns="http://www.w3.org/2000/svg" version="1.1" width="2397px" height="806px" style="shape-rendering:geometricPrecision; text-rendering:geometricPrecision; image-rendering:optimizeQuality; fill-rule:evenodd; clip-rule:evenodd" xmlns:xlink="http://www.w3.org/1999/xlink">
<g><path style="opacity:0.956" fill="#fea4bd" d="M 423.5,716.5 C 423.5,715.833 423.5,715.167 423.5,714.5C 447.121,702.433 469.121,687.6 489.5,670C 548.304,616.287 590.47,551.454 616,475.5C 646.225,376.831 633.891,284.164 579,197.5C 553.32,159.861 522.486,126.861 486.5,98.5C 485.614,97.675 485.281,96.675 485.5,95.5C 479.197,92.3873 473.53,88.2206 468.5,83C 467.365,82.2506 466.365,82.4173 465.5,83.5C 399.183,176.775 373.516,280.775 388.5,395.5C 387.522,395.023 386.689,394.357 386,393.5C 358.44,330.399 352.44,265.066 368,197.5C 384.344,136.291 413.011,81.9574 454,34.5C 456.324,33.2809 458.491,31.9476 460.5,30.5C 518.019,67.1072 567.185,112.441 608,166.5C 671.507,259.768 688.84,361.434 660,471.5C 639.327,541.059 601.494,599.226 546.5,646C 509.491,676.52 468.491,700.02 423.5,716.5 Z"/></g>
<g><path style="opacity:0.954" fill="#fe2c77" d="M 382.5,414.5 C 441.801,412.608 499.468,421.108 555.5,440C 569.224,445.031 582.557,450.864 595.5,457.5C 597.012,458.249 598.012,459.416 598.5,461C 566.055,544.876 513.388,613.209 440.5,666C 353.383,725.899 256.717,762.399 150.5,775.5C 149.167,775.167 147.833,774.833 146.5,774.5C 234.757,749.114 316.424,710.447 391.5,658.5C 441.267,622.884 483.433,579.884 518,529.5C 528.736,513.077 538.236,495.91 546.5,478C 400.65,428.027 267.983,450.861 148.5,546.5C 138.859,554.559 129.526,563.059 120.5,572C 194.137,601.72 270.804,615.72 350.5,614C 376.076,612.956 401.076,608.79 425.5,601.5C 426.167,601.833 426.833,602.167 427.5,602.5C 426.687,603.814 425.687,604.981 424.5,606C 381.819,630.199 335.652,641.366 286,639.5C 246.088,638.756 206.588,634.256 167.5,626C 148.233,620.671 128.9,615.338 109.5,610C 89.5329,603.005 69.8662,595.505 50.5,587.5C 106.028,520.875 174.362,471.708 255.5,440C 283.183,430.329 311.516,423.329 340.5,419C 354.64,417.373 368.64,415.873 382.5,414.5 Z"/></g>
<g><path style="opacity:0.97" fill="#000000" d="M 886.5,551.5 C 927.21,549.258 953.376,567.592 965,606.5C 972.148,636.588 973.315,666.921 968.5,697.5C 957.941,754.908 924.274,777.074 867.5,764C 847.475,755.64 833.975,741.14 827,720.5C 818.963,694.074 816.296,667.074 819,639.5C 819.734,614.959 827.401,592.959 842,573.5C 854.324,560.921 869.158,553.588 886.5,551.5 Z M 888.5,581.5 C 899.783,579.982 909.283,583.315 917,591.5C 925.691,606.258 930.024,622.258 930,639.5C 931.274,661.283 930.274,682.95 927,704.5C 924.98,716.382 919.48,726.215 910.5,734C 887.84,742.922 872.674,735.755 865,712.5C 862.216,702.349 860.55,692.016 860,681.5C 858.438,657.649 859.771,633.983 864,610.5C 866.713,595.973 874.879,586.306 888.5,581.5 Z"/></g>
<g><path style="opacity:0.969" fill="#000000" d="M 1178.5,551.5 C 1203.46,549.977 1224.46,558.144 1241.5,576C 1235.38,583.124 1228.88,589.957 1222,596.5C 1209.78,584.871 1195.28,580.038 1178.5,582C 1160.9,588.319 1150.74,600.819 1148,619.5C 1143.14,649.56 1143.48,679.56 1149,709.5C 1155,733.41 1169.83,742.243 1193.5,736C 1197.54,735.101 1201.2,733.434 1204.5,731C 1205.49,712.576 1205.83,694.076 1205.5,675.5C 1197.5,675.5 1189.5,675.5 1181.5,675.5C 1180.63,666.091 1179.3,656.758 1177.5,647.5C 1199.16,646.5 1220.82,646.167 1242.5,646.5C 1242.67,680.502 1242.5,714.502 1242,748.5C 1212.75,768.415 1181.25,772.915 1147.5,762C 1128.72,752.556 1116.55,737.723 1111,717.5C 1101.53,681.906 1101.2,646.239 1110,610.5C 1120.15,575.83 1142.99,556.164 1178.5,551.5 Z"/></g>
<g><path style="opacity:0.97" fill="#000000" d="M 1333.5,551.5 C 1374.21,549.258 1400.38,567.592 1412,606.5C 1419.15,636.588 1420.31,666.921 1415.5,697.5C 1404.94,754.908 1371.27,777.074 1314.5,764C 1294.48,755.64 1280.98,741.14 1274,720.5C 1265.96,694.074 1263.3,667.074 1266,639.5C 1266.73,614.959 1274.4,592.959 1289,573.5C 1301.32,560.921 1316.16,553.588 1333.5,551.5 Z M 1335.5,581.5 C 1346.78,579.982 1356.28,583.315 1364,591.5C 1372.69,606.258 1377.02,622.258 1377,639.5C 1378.27,661.283 1377.27,682.95 1374,704.5C 1371.98,716.382 1366.48,726.215 1357.5,734C 1334.84,742.922 1319.67,735.755 1312,712.5C 1309.22,702.349 1307.55,692.016 1307,681.5C 1305.44,657.649 1306.77,633.983 1311,610.5C 1313.71,595.973 1321.88,586.306 1335.5,581.5 Z"/></g>
<g><path style="opacity:0.975" fill="#000000" d="M 663.5,555.5 C 684.858,555.154 706.191,555.654 727.5,557C 757.143,558.879 777.643,573.379 789,600.5C 801.389,639.805 801.389,679.139 789,718.5C 779.587,740.912 763.087,755.079 739.5,761C 735.853,761.774 732.186,762.441 728.5,763C 706.836,763.5 685.169,763.667 663.5,763.5C 663.5,694.167 663.5,624.833 663.5,555.5 Z M 702.5,585.5 C 733.001,581.183 750.501,594.183 755,624.5C 758.333,647.5 758.333,670.5 755,693.5C 753.125,706.822 747.625,718.322 738.5,728C 727.292,733.998 715.292,736.165 702.5,734.5C 702.5,684.833 702.5,635.167 702.5,585.5 Z"/></g>
<g><path style="opacity:0.977" fill="#000000" d="M 999.5,555.5 C 1012.41,555.178 1025.25,555.511 1038,556.5C 1038.5,614.832 1038.67,673.166 1038.5,731.5C 1060.5,731.5 1082.5,731.5 1104.5,731.5C 1103.86,742.127 1102.53,752.627 1100.5,763C 1066.83,763.5 1033.17,763.667 999.5,763.5C 999.5,694.167 999.5,624.833 999.5,555.5 Z"/></g>
<g><path style="opacity:0.973" fill="#000000" d="M 1446.5,555.5 C 1465.5,555.333 1484.5,555.5 1503.5,556C 1559.52,559.85 1580.36,589.017 1566,643.5C 1560.25,656.916 1550.75,666.75 1537.5,673C 1551.88,703.092 1566.55,733.092 1581.5,763C 1567.16,763.833 1552.82,763.666 1538.5,762.5C 1526.67,735.5 1514.83,708.5 1503,681.5C 1497.26,680.525 1491.43,680.192 1485.5,680.5C 1485.5,708.167 1485.5,735.833 1485.5,763.5C 1472.5,763.5 1459.5,763.5 1446.5,763.5C 1446.5,694.167 1446.5,624.833 1446.5,555.5 Z M 1485.5,584.5 C 1522.96,582.05 1536.8,599.05 1527,635.5C 1522.87,644.158 1516.03,649.325 1506.5,651C 1499.51,651.5 1492.51,651.666 1485.5,651.5C 1485.5,629.167 1485.5,606.833 1485.5,584.5 Z"/></g>
<g><path style="opacity:0.971" fill="#000000" d="M 1594.5,555.5 C 1607.17,555.5 1619.83,555.5 1632.5,555.5C 1632.05,608.52 1632.55,661.52 1634,714.5C 1637.41,732.469 1648.24,739.969 1666.5,737C 1678.21,734.108 1684.71,726.608 1686,714.5C 1686.33,661.833 1686.67,609.167 1687,556.5C 1699.75,555.511 1712.59,555.178 1725.5,555.5C 1725.67,609.501 1725.5,663.501 1725,717.5C 1717.5,751.203 1696.33,768.203 1661.5,768.5C 1639.08,769.693 1620.58,762.026 1606,745.5C 1598,734.157 1594,721.49 1594,707.5C 1593.17,656.763 1593.34,606.096 1594.5,555.5 Z"/></g>
<g><path style="opacity:0.969" fill="#000000" d="M 1758.5,555.5 C 1771.41,555.178 1784.25,555.511 1797,556.5C 1797.33,588.167 1797.67,619.833 1798,651.5C 1816.96,619.749 1835.79,587.916 1854.5,556C 1867.85,555.167 1881.18,555.334 1894.5,556.5C 1875.45,587.434 1856.78,618.601 1838.5,650C 1857.53,685.897 1876.7,721.73 1896,757.5C 1913.31,690.925 1930.31,624.258 1947,557.5C 1954.77,556.183 1962.77,555.517 1971,555.5C 1978.83,555.833 1986.67,556.167 1994.5,556.5C 2011.83,625.167 2029.17,693.833 2046.5,762.5C 2033.18,763.499 2019.85,763.833 2006.5,763.5C 2003.42,747.781 2000.09,732.114 1996.5,716.5C 1978.85,715.5 1961.18,715.167 1943.5,715.5C 1940.76,731.549 1937.76,747.549 1934.5,763.5C 1908.16,763.667 1881.83,763.5 1855.5,763C 1835.95,726.737 1816.78,690.237 1798,653.5C 1797.5,690.165 1797.33,726.832 1797.5,763.5C 1784.5,763.5 1771.5,763.5 1758.5,763.5C 1758.5,694.167 1758.5,624.833 1758.5,555.5 Z M 1969.5,589.5 C 1977.24,621.195 1984.24,653.195 1990.5,685.5C 1977.17,685.5 1963.83,685.5 1950.5,685.5C 1956.83,653.496 1963.17,621.496 1969.5,589.5 Z"/></g>
<g><path style="opacity:0.967" fill="#000000" d="M 2027.5,555.5 C 2041.41,555.177 2055.25,555.51 2069,556.5C 2080,588.167 2091,619.833 2102,651.5C 2113.53,619.909 2124.86,588.243 2136,556.5C 2149.09,555.511 2162.25,555.177 2175.5,555.5C 2158.36,598.415 2140.53,641.081 2122,683.5C 2121.5,710.165 2121.33,736.831 2121.5,763.5C 2108.5,763.5 2095.5,763.5 2082.5,763.5C 2082.67,737.498 2082.5,711.498 2082,685.5C 2063.54,642.25 2045.37,598.916 2027.5,555.5 Z"/></g>
<g><path style="opacity:0.97" fill="#000000" d="M 2209.5,555.5 C 2225.17,555.5 2240.83,555.5 2256.5,555.5C 2273.45,624.781 2290.78,693.948 2308.5,763C 2295.17,763.5 2281.84,763.667 2268.5,763.5C 2265.17,747.5 2261.83,731.5 2258.5,715.5C 2240.83,715.5 2223.17,715.5 2205.5,715.5C 2202.5,731.496 2199.5,747.496 2196.5,763.5C 2183.5,763.5 2170.5,763.5 2157.5,763.5C 2174.52,694.073 2191.86,624.74 2209.5,555.5 Z M 2231.5,588.5 C 2239.12,620.574 2246.12,652.907 2252.5,685.5C 2239.17,685.5 2225.83,685.5 2212.5,685.5C 2218.96,653.19 2225.3,620.856 2231.5,588.5 Z"/></g>
<g><path style="opacity:0.031" fill="#9fb8bf" d="M 423.5,714.5 C 423.5,715.167 423.5,715.833 423.5,716.5C 421.067,716.214 421.067,715.548 423.5,714.5 Z"/></g>
</svg>
